<?xml version="1.0" encoding="UTF-8" standalone="no"?>
<svg
   height="16"
   viewBox="0 0 16 16.000001"
   width="16"
   version="1.1"
   id="svg142"
   xmlns="http://www.w3.org/2000/svg"
   xmlns:svg="http://www.w3.org/2000/svg">
  <defs
     id="defs146" />
  <ellipse
     style="fill:none;fill-opacity:1;stroke:#ff5555;stroke-width:1.5265;stroke-dasharray:none"
     id="path304"
     cx="8"
     cy="7.9999981"
     rx="7.2367492"
     ry="7.2367477" />
  <rect
     style="fill:#e0e0e0;fill-opacity:1;stroke:#ff5555;stroke-width:1.14491;stroke-dasharray:none"
     id="rect1769"
     width="9.8550978"
     height="0.45509017"
     x="3.0724504"
     y="7.77245" />
  <path
     style="fill:#ffffff;stroke:#e0e0e0;stroke-width:0.0323207"
     d="M 7.5307244,14.447182 C 6.6418203,14.373523 5.9025669,14.168172 5.117445,13.776818 3.2688382,12.855358 1.9762424,11.115312 1.6282534,9.0797942 1.4911421,8.2777796 1.5174965,7.3759972 1.7021012,6.5529043 2.1132788,4.7195959 3.3707395,3.1104446 5.0671232,2.2467427 5.7460058,1.9010944 6.3548667,1.7097733 7.1536495,1.5910981 c 0.366968,-0.05452 1.3348486,-0.054555 1.7022238,-6.12e-5 1.4720977,0.2183615 2.7061167,0.8343851 3.7298927,1.8619661 1.435099,1.4404328 2.103613,3.4758549 1.806078,5.4989613 -0.112402,0.7642851 -0.387789,1.5617557 -0.769275,2.2276767 -0.656095,1.14528 -1.597676,2.034656 -2.762812,2.609632 -0.688088,0.33956 -1.331218,0.533099 -2.0758194,0.624681 -0.3351306,0.04122 -0.9576063,0.05772 -1.2532132,0.03323 z m 5.9849796,-6.4478074 -0.0056,-0.8026308 -5.5106804,-0.00543 -5.5106803,-0.00543 v 0.808059 0.8080593 h 5.5163293 5.5163294 z"
     id="path1224" />
</svg>
