<?xml version="1.0" encoding="UTF-8" standalone="no"?>
<svg
   height="16"
   viewBox="0 0 16 16.000001"
   width="16"
   version="1.1"
   id="svg142"
   xmlns="http://www.w3.org/2000/svg"
   xmlns:svg="http://www.w3.org/2000/svg">
  <defs
     id="defs146" />
  <ellipse
     style="fill:none;fill-opacity:1;stroke:#338000;stroke-width:1.5265;stroke-dasharray:none"
     id="path304"
     cx="8"
     cy="7.9999981"
     rx="7.2367492"
     ry="7.2367477" />
  <path
     d="M 7.2142856,2.5 V 7.2142858 H 2.5 V 8.7857143 H 7.2142856 V 13.5 H 8.7857141 V 8.7857143 H 13.5 V 7.2142858 H 8.7857141 V 2.5 Z"
     fill="#e0e0e0"
     id="path140"
     style="fill:#338000;stroke-width:0.785714" />
  <path
     style="fill:#ffffff;stroke:#e0e0e0;stroke-width:0.0331456"
     d="M 7.5351066,14.449474 C 6.7997408,14.377255 6.1982433,14.240692 5.645394,14.020438 4.1483681,13.424025 2.9548308,12.336766 2.2292161,10.908452 1.4564483,9.3873218 1.3253775,7.5845959 1.8688129,5.9515233 2.1840028,5.0043489 2.7101822,4.1581713 3.4341767,3.4341767 5.0242376,1.8441158 7.2452762,1.207402 9.4679704,1.7044457 10.356538,1.903149 11.302636,2.3638865 12.053961,2.9637893 c 0.265512,0.212001 0.778531,0.7288588 0.99519,1.0026378 0.732041,0.9250344 1.164732,1.9283776 1.353049,3.137509 0.06868,0.4409975 0.06733,1.3558088 -0.0027,1.8122385 -0.178801,1.1657284 -0.602341,2.1510524 -1.329777,3.0935924 -0.209001,0.270802 -0.790677,0.852253 -1.059982,1.059571 -0.946583,0.728703 -1.937486,1.155434 -3.0825439,1.327495 -0.2961768,0.0445 -1.1472679,0.07669 -1.3921165,0.05264 z M 8.8002652,11.153605 8.8058852,8.80589 11.1536,8.80027 l 2.347715,-0.00562 0.0058,-0.7899709 0.0058,-0.7899708 H 11.159408 8.8058891 l -0.00562,-2.3588641 -0.00562,-2.358864 -0.7899709,-0.0058 -0.7899708,-0.0058 V 4.8500315 7.2146989 H 4.8500315 2.485364 l 0.0058,0.7899708 0.0058,0.7899709 2.358864,0.00562 2.3588641,0.00562 V 11.1594 13.512919 l 0.7899708,-0.0058 0.7899709,-0.0058 z"
     id="path533" />
</svg>
