<?xml version="1.0" encoding="UTF-8" standalone="no"?>
<svg
   height="16"
   viewBox="0 0 16 16"
   width="16"
   version="1.1"
   id="svg8"
   sodipodi:docname="redo.svg"
   inkscape:version="1.2.1 (9c6d41e410, 2022-07-14)"
   xmlns:inkscape="http://www.inkscape.org/namespaces/inkscape"
   xmlns:sodipodi="http://sodipodi.sourceforge.net/DTD/sodipodi-0.dtd"
   xmlns="http://www.w3.org/2000/svg"
   xmlns:svg="http://www.w3.org/2000/svg">
  <defs
     id="defs12" />
  <sodipodi:namedview
     id="namedview10"
     pagecolor="#505050"
     bordercolor="#eeeeee"
     borderopacity="1"
     inkscape:showpageshadow="0"
     inkscape:pageopacity="0"
     inkscape:pagecheckerboard="0"
     inkscape:deskcolor="#505050"
     showgrid="false"
     inkscape:zoom="50.875"
     inkscape:cx="7.5872236"
     inkscape:cy="8.009828"
     inkscape:window-width="1920"
     inkscape:window-height="1001"
     inkscape:window-x="-9"
     inkscape:window-y="-9"
     inkscape:window-maximized="1"
     inkscape:current-layer="svg8" />
  <g
     fill="#e0e0e0"
     transform="matrix(-1,0,0,1,16.026308,-1036.4)"
     id="g6">
    <path
       d="M 9,2 A 6,6 0 0 0 3,8 h 2 a 4,4 0 0 1 4,-4 4,4 0 0 1 4,4 4,4 0 0 1 -4,4 v 2 A 6,6 0 0 0 15,8 6,6 0 0 0 9,2 Z"
       transform="translate(0,1036.4)"
       id="path2" />
    <path
       d="m 4.118,1048.3 -1.6771,-0.9683 -1.6771,-0.9682 1.6771,-0.9683 1.6771,-0.9682 -1e-7,1.9365 z"
       transform="matrix(0,-1.1926,1.5492,0,-1617,1049.3)"
       id="path4" />
  </g>
</svg>
